<svg width="32" height="21" viewBox="0 0 32 21" fill="none" xmlns="http://www.w3.org/2000/svg">
<path fill-rule="evenodd" clip-rule="evenodd" d="M7.31079 6.04128C11.138 4.25999 16.8039 1.96332 21.9358 1.21064C22.7789 3.17898 23.6224 4.82722 24.3294 6.09424C23.7575 4.65176 23.0242 2.57686 22.3651 0.0214947C13.481 -0.037603 2.36121 4.14312 2.36121 4.14312C4.80956 4.30211 6.34816 5.07571 7.31079 6.04128Z" fill="#C02CBC"/>
<path d="M9.20053 15.8752C9.20053 15.8752 9.20053 9.66931 1.78872 10.319C1.78872 10.319 12.1457 4.49988 20.9359 3.21064C23.0309 8.1019 25.1284 11.0166 25.1284 11.0166C27.0558 13.0905 30.646 14.1012 30.646 14.1012L29.8948 16.8752C29.8948 16.8752 21.6615 15.1614 18.2792 19.4645C15.9844 13.6535 9.20053 15.8752 9.20053 15.8752Z" fill="white"/>
</svg>
