<svg id="Layer_1" data-name="Layer 1" xmlns="http://www.w3.org/2000/svg" width="17" height="44" viewBox="0 0 17 44"><defs><style>.cls-1,.cls-2,.cls-3,.cls-4{fill:none;stroke-width:1.5px;}.cls-1,.cls-2{stroke:#d0ab2f;}.cls-2,.cls-4{stroke-linejoin:round;}.cls-3,.cls-4{stroke:#fff;}</style></defs><title>egg_sprite</title><path class="cls-1" d="M15.25,12.5a8.18,8.18,0,0,1-.52,2.7,5.9,5.9,0,0,1-1.43,2.27,7.22,7.22,0,0,1-4.8,1.78,7.22,7.22,0,0,1-4.8-1.78A5.9,5.9,0,0,1,2.27,15.2a8.18,8.18,0,0,1-.52-2.7A16.12,16.12,0,0,1,3.61,5.7C4.85,3.35,6.53,1.75,8.5,1.75s3.65,1.6,4.89,4A16.12,16.12,0,0,1,15.25,12.5Z"/><path class="cls-2" d="M3.46,6C1.41,4.36,1,1,1,1A26.25,26.25,0,0,0,5,3.27"/><path class="cls-2" d="M13.54,6C15.59,4.36,16,1,16,1a26.25,26.25,0,0,1-4,2.27"/><path class="cls-3" d="M15.25,34.5a8.18,8.18,0,0,1-.52,2.7,5.9,5.9,0,0,1-1.43,2.27,7.22,7.22,0,0,1-4.8,1.78,7.22,7.22,0,0,1-4.8-1.78A5.9,5.9,0,0,1,2.27,37.2a8.18,8.18,0,0,1-.52-2.7,16.12,16.12,0,0,1,1.86-6.8c1.24-2.35,2.92-3.95,4.89-3.95s3.65,1.6,4.89,3.95A16.12,16.12,0,0,1,15.25,34.5Z"/><path class="cls-4" d="M3.46,28C1.41,26.36,1,23,1,23a26.25,26.25,0,0,0,4,2.27"/><path class="cls-4" d="M13.54,28C15.59,26.36,16,23,16,23a26.25,26.25,0,0,1-4,2.27"/></svg>