<svg width="26" height="26" viewBox="0 0 26 26" fill="none" xmlns="http://www.w3.org/2000/svg">
<path d="M13.1046 14.2677C15.9177 11.5556 25.2414 1.78642 24.8922 1.45669C24.7868 1.35724 23.2092 2.88052 22.3861 3.70706C6.02783 18.6716 1.95849 21.6574 1.53612 22.0646C1.63054 21.9737 0.793955 22.6175 1.86907 23.654C2.94418 24.6906 3.50908 23.9668 3.50908 23.9668C3.50908 23.9668 10.2916 16.9799 13.1046 14.2677Z" fill="white"/>
<path d="M11.596 13.1864C14.4091 15.8986 24.5417 24.8879 24.8837 24.5512C24.9868 24.4496 23.4069 22.9285 22.5496 22.135C7.02836 6.36346 3.93144 2.44008 3.50913 2.03285C3.60341 2.12389 2.93569 1.31731 1.86058 2.35386C0.785466 3.39041 1.53617 3.93505 1.53617 3.93505C1.53617 3.93505 8.783 10.4743 11.596 13.1864Z" fill="white"/>
</svg>
