<svg width="42" height="43" viewBox="0 0 42 43" fill="none" xmlns="http://www.w3.org/2000/svg">
<path d="M29 33.626H29.5V33.126V9.12598V8.62598H29H13H12.5V9.12598V33.126V33.626H13H29ZM12 2.62598H30C30.8749 2.62598 31.5577 2.86596 32.0151 3.27162C32.4643 3.66996 32.75 4.27528 32.75 5.12598V37.126C32.75 37.8814 32.4668 38.4018 31.8713 38.9973C31.5948 39.2738 31.3393 39.4218 31.0655 39.5072C30.7803 39.5962 30.4485 39.626 30 39.626H12C11.5515 39.626 11.2197 39.5962 10.9345 39.5072C10.6607 39.4218 10.4052 39.2738 10.1287 38.9973C9.85218 38.7208 9.70416 38.4653 9.61873 38.1915C9.52975 37.9062 9.5 37.5745 9.5 37.126V5.12598C9.5 4.2426 9.73919 3.63702 10.1251 3.25109C10.511 2.86517 11.1166 2.62598 12 2.62598Z" stroke="#A3A3A3"/>
</svg>
