<svg width="24" height="17" viewBox="0 0 24 17" fill="none" xmlns="http://www.w3.org/2000/svg">
<path d="M23.8471 0.884208C23.8471 0.884208 18.0153 4.92112 15.3367 7.6846C10.9946 12.1645 7.81471 16.9166 7.81471 16.9166C7.81471 16.9166 6.27728 14.3907 4.34497 12.2652C2.41266 10.1396 0.466553 9.56839 0.466553 9.56839C0.466553 9.56839 0.67825 8.38628 1.99304 8.44985C3.30783 8.51342 4.60208 9.03652 5.96727 10.5265C7.33245 12.0164 7.81471 13.1356 7.81471 13.1356C7.81471 13.1356 9.8185 9.95144 13.0768 6.85393C16.5449 3.55694 21.9991 0.273439 23.1713 0.174418C24.3435 0.0753984 23.8471 0.884208 23.8471 0.884208Z" fill="white"/>
</svg>
