<svg width="24" height="30" viewBox="0 0 24 30" fill="none" xmlns="http://www.w3.org/2000/svg">
<path d="M21.7665 18.5114C21.7665 19.7621 21.5069 21.2757 21.0088 22.7035C20.5083 24.1377 19.7902 25.4198 18.9192 26.2596C17.0918 28.0218 14.6076 29.0164 12.0119 29.0164C9.41621 29.0164 6.93207 28.0218 5.10465 26.2596C4.23367 25.4198 3.51549 24.1377 3.01507 22.7035C2.51691 21.2757 2.25732 19.7621 2.25732 18.5114C2.25732 15.8404 3.16434 11.6388 4.89998 8.11746C6.66284 4.54091 9.10176 2.00391 12.0119 2.00391C14.9221 2.00391 17.361 4.54091 19.1238 8.11746C20.8595 11.6388 21.7665 15.8404 21.7665 18.5114Z" stroke="white" stroke-width="1.5"/>
<path d="M4.73707 8.75523C2.04145 6.29961 1.50649 1.25195 1.50649 1.25195C3.41158 2.77262 4.67073 3.49281 6.75879 4.66253" stroke="white" stroke-width="1.5" stroke-linejoin="round"/>
<path d="M19.2855 8.75523C21.9811 6.29961 22.5161 1.25195 22.5161 1.25195C20.611 2.77262 19.3519 3.49281 17.2638 4.66253" stroke="white" stroke-width="1.5" stroke-linejoin="round"/>
</svg>
