<svg width="20" height="23" viewBox="0 0 20 23" fill="none" xmlns="http://www.w3.org/2000/svg">
<path d="M18.3491 14.1756C18.3491 15.1566 18.1311 16.3426 17.7128 17.4616C17.2933 18.5839 16.6881 19.5968 15.9444 20.266C14.3956 21.66 12.2846 22.4509 10.0738 22.4509C7.8631 22.4509 5.75213 21.66 4.20328 20.266C3.45963 19.5968 2.85443 18.5839 2.43491 17.4616C2.01658 16.3426 1.79858 15.1566 1.79858 14.1756C1.79858 12.0852 2.55829 8.80097 4.01288 6.04658C5.48074 3.26707 7.54632 1.22021 10.0738 1.22021C12.6014 1.22021 14.667 3.26707 16.1348 6.04658C17.5894 8.80097 18.3491 12.0852 18.3491 14.1756Z" stroke="#A3A3A3"/>
<path d="M4.17728 6.57039C1.7753 4.65579 1.29862 0.720215 1.29862 0.720215C2.99617 1.90586 4.11816 2.46737 5.97876 3.37939" stroke="#A3A3A3" stroke-linejoin="round"/>
<path d="M15.9704 6.57039C18.3724 4.65579 18.8491 0.720215 18.8491 0.720215C17.1515 1.90586 16.0295 2.46737 14.1689 3.37939" stroke="#A3A3A3" stroke-linejoin="round"/>
</svg>
