<svg width="17" height="20" viewBox="0 0 17 20" fill="none" xmlns="http://www.w3.org/2000/svg">
<path d="M15.25 12.5C15.25 13.2957 15.0722 14.2711 14.7266 15.1955C14.3792 16.1247 13.8861 16.9395 13.3016 17.4655C12.0403 18.6006 10.3142 19.25 8.5 19.25C6.68578 19.25 4.9597 18.6006 3.69842 17.4655C3.11395 16.9395 2.6208 16.1247 2.27342 15.1955C1.92784 14.2711 1.75 13.2957 1.75 12.5C1.75 10.7711 2.38395 8.01547 3.60517 5.70299C4.84627 3.35284 6.52893 1.75 8.5 1.75C10.4711 1.75 12.1537 3.35284 13.3948 5.70299C14.6161 8.01547 15.25 10.7711 15.25 12.5Z" stroke="#D0AB2F" stroke-width="1.5"/>
<path d="M3.46032 6C1.4074 4.36364 1 1 1 1C2.45086 2.01334 3.40979 2.49325 5 3.27273" stroke="#D0AB2F" stroke-width="1.5" stroke-linejoin="round"/>
<path d="M13.5397 6C15.5926 4.36364 16 1 16 1C14.5491 2.01334 13.5902 2.49325 12 3.27273" stroke="#D0AB2F" stroke-width="1.5" stroke-linejoin="round"/>
</svg>
