<svg width="58" height="36" viewBox="0 0 58 36" fill="none" xmlns="http://www.w3.org/2000/svg">
<g filter="url(#filter0_d)">
<path d="M38.2945 8.25907L33.1135 7.76641L26.0276 7.3074L20.3909 8.28333L15.6808 8.36657C15.6808 8.36657 7.18359 9.42663 7.16821 10.1236C7.15283 10.8206 15.3611 10.417 15.3611 10.417L21.0447 9.73233L27.1049 10.2095L32.663 9.52702L38.31 9.13512C38.31 9.13512 43.4675 9.97985 43.4674 9.48215C43.4674 8.98445 38.2945 8.25907 38.2945 8.25907Z" fill="#D0AB2F"/>
<path d="M38.2503 26.5748L33.0918 25.8852L26.0285 25.1567L20.3588 25.9173L15.6489 25.8211C15.6489 25.8211 7.11747 26.5568 7.07556 27.2527C7.03365 27.9486 15.2513 27.8578 15.2513 27.8578L20.9569 27.3901L26.9946 28.0977L32.5746 27.6274L38.2324 27.4508C38.2324 27.4508 43.354 28.4913 43.3729 27.994C43.3918 27.4966 38.2503 26.5748 38.2503 26.5748Z" fill="#D0AB2F"/>
<path d="M44.2632 17.0362L38.0777 16.2716L29.6134 15.5071L22.8519 16.6539H17.2174C17.2174 16.6539 7.00007 18.029 7.00007 18.7564C7.00007 19.4838 16.7916 19.3298 16.7916 19.3298L23.6032 18.5653L30.8404 19.3298L37.5017 18.5653L44.2632 18.183C44.2632 18.183 50.4236 19.4413 50.4236 18.7564C50.4236 18.0715 44.2632 17.0362 44.2632 17.0362Z" fill="#D0AB2F"/>
</g>
<defs>
<filter id="filter0_d" x="0" y="0" width="57.4235" height="35.4789" filterUnits="userSpaceOnUse" color-interpolation-filters="sRGB">
<feFlood flood-opacity="0" result="BackgroundImageFix"/>
<feColorMatrix in="SourceAlpha" type="matrix" values="0 0 0 0 0 0 0 0 0 0 0 0 0 0 0 0 0 0 127 0"/>
<feOffset/>
<feGaussianBlur stdDeviation="3.5"/>
<feColorMatrix type="matrix" values="0 0 0 0 1 0 0 0 0 0.803922 0 0 0 0 0.152941 0 0 0 0.8 0"/>
<feBlend mode="normal" in2="BackgroundImageFix" result="effect1_dropShadow"/>
<feBlend mode="normal" in="SourceGraphic" in2="effect1_dropShadow" result="shape"/>
</filter>
</defs>
</svg>
