<svg width="44" height="22" viewBox="0 0 44 22" fill="none" xmlns="http://www.w3.org/2000/svg">
<path d="M31.8712 1.43851L26.6902 0.945849L19.6042 0.486847L13.9676 1.46278L9.25748 1.54601C9.25748 1.54601 0.760251 2.60607 0.744868 3.30303C0.729485 4 8.93773 3.59642 8.93773 3.59642L14.6214 2.91177L20.6816 3.3889L26.2397 2.70646L31.8866 2.31457C31.8866 2.31457 37.0441 3.1593 37.0441 2.66159C37.0441 2.16389 31.8712 1.43851 31.8712 1.43851Z" fill="white"/>
<path d="M31.8269 19.7542L26.6685 19.0647L19.6052 18.3361L13.9354 19.0967L9.22557 19.0005C9.22557 19.0005 0.694131 19.7363 0.652219 20.4321C0.610307 21.128 8.82797 21.0373 8.82797 21.0373L14.5336 20.5696L20.5712 21.2771L26.1512 20.8068L31.809 20.6303C31.809 20.6303 36.9306 21.6708 36.9495 21.1734C36.9685 20.6761 31.8269 19.7542 31.8269 19.7542Z" fill="white"/>
<path d="M37.8398 10.2156L31.6543 9.45107L23.19 8.68652L16.4286 9.83334H10.794C10.794 9.83334 0.576733 11.2084 0.576733 11.9359C0.576733 12.6633 10.3683 12.5093 10.3683 12.5093L17.1798 11.7447L24.4171 12.5093L31.0784 11.7447L37.8398 11.3624C37.8398 11.3624 44.0002 12.6208 44.0002 11.9359C44.0003 11.2509 37.8398 10.2156 37.8398 10.2156Z" fill="white"/>
</svg>
