<svg width="44" height="42" viewBox="0 0 44 42" fill="none" xmlns="http://www.w3.org/2000/svg">
<g filter="url(#filter0_d)">
<mask id="path-1-outside-1" maskUnits="userSpaceOnUse" x="10" y="11" width="23" height="20" fill="black">
<rect fill="white" x="10" y="11" width="23" height="20"/>
<path fill-rule="evenodd" clip-rule="evenodd" d="M12.3416 21.073L16.7974 22.736L18.5218 28.2826C18.6322 28.6375 19.0668 28.7691 19.3549 28.5332L21.8386 26.5087C22.099 26.2961 22.4698 26.286 22.7417 26.4832L27.2218 29.7358C27.5299 29.9597 27.967 29.7909 28.0443 29.4183L31.326 13.6329C31.4105 13.2258 31.0106 12.8862 30.623 13.0361L12.3362 20.0907C11.8851 20.2646 11.889 20.9036 12.3416 21.073ZM18.244 21.8511L26.9523 16.4876C27.1085 16.3917 27.2697 16.6034 27.1351 16.7281L19.9484 23.4083C19.6957 23.6433 19.5329 23.9584 19.4867 24.2997L19.2419 26.1141C19.2095 26.3563 18.8693 26.3803 18.8024 26.1459L17.8609 22.8375C17.753 22.4602 17.9101 22.057 18.244 21.8511Z"/>
</mask>
<path d="M12.3416 21.073L11.9911 22.0096L11.9919 22.0099L12.3416 21.073ZM16.7974 22.736L17.7523 22.4391L17.6067 21.9707L17.1471 21.7991L16.7974 22.736ZM18.5218 28.2826L17.5669 28.5795L17.5669 28.5795L18.5218 28.2826ZM19.3549 28.5332L18.7231 27.7581L18.7213 27.7595L19.3549 28.5332ZM21.8386 26.5087L22.4704 27.2838L22.4709 27.2834L21.8386 26.5087ZM22.7417 26.4832L23.3292 25.674L23.3289 25.6737L22.7417 26.4832ZM27.2218 29.7358L27.8096 28.9268L27.8093 28.9266L27.2218 29.7358ZM28.0443 29.4183L27.0652 29.2148L27.0652 29.2151L28.0443 29.4183ZM31.326 13.6329L32.3051 13.8364L32.3051 13.8361L31.326 13.6329ZM30.623 13.0361L30.9829 13.9691L30.9838 13.9688L30.623 13.0361ZM12.3362 20.0907L12.6959 21.0238L12.6961 21.0237L12.3362 20.0907ZM18.244 21.8511L17.7196 20.9996L17.7191 20.9999L18.244 21.8511ZM26.9523 16.4876L26.4291 15.6354L26.4279 15.6362L26.9523 16.4876ZM27.1351 16.7281L26.4555 15.9945L26.4543 15.9956L27.1351 16.7281ZM19.9484 23.4083L19.2675 22.6759L19.2674 22.676L19.9484 23.4083ZM19.4867 24.2997L18.4958 24.1657L18.4957 24.166L19.4867 24.2997ZM19.2419 26.1141L18.2508 25.9803L18.2507 25.9816L19.2419 26.1141ZM18.8024 26.1459L17.8406 26.4196L17.8408 26.4203L18.8024 26.1459ZM17.8609 22.8375L18.8227 22.5638L18.8224 22.5627L17.8609 22.8375ZM11.9919 22.0099L16.4478 23.6729L17.1471 21.7991L12.6913 20.1361L11.9919 22.0099ZM15.8425 23.0329L17.5669 28.5795L19.4767 27.9857L17.7523 22.4391L15.8425 23.0329ZM17.5669 28.5795C17.887 29.6088 19.1493 29.994 19.9884 29.3069L18.7213 27.7595C18.9843 27.5442 19.3774 27.6661 19.4767 27.9857L17.5669 28.5795ZM19.9867 29.3083L22.4704 27.2838L21.2068 25.7335L18.7231 27.7581L19.9867 29.3083ZM22.4709 27.2834C22.3791 27.3583 22.2492 27.3613 22.1545 27.2927L23.3289 25.6737C22.6904 25.2106 21.819 25.2339 21.2063 25.7339L22.4709 27.2834ZM22.1542 27.2924L26.6343 30.545L27.8093 28.9266L23.3292 25.674L22.1542 27.2924ZM26.634 30.5448C27.5286 31.1949 28.7983 30.706 29.0234 29.6216L27.0652 29.2151C27.1356 28.8758 27.5313 28.7246 27.8096 28.9268L26.634 30.5448ZM29.0234 29.6219L32.3051 13.8364L30.3469 13.4294L27.0652 29.2148L29.0234 29.6219ZM32.3051 13.8361C32.5502 12.6555 31.3908 11.6669 30.2622 12.1035L30.9838 13.9688C30.6304 14.1055 30.2708 13.7961 30.3469 13.4297L32.3051 13.8361ZM30.2631 12.1031L11.9763 19.1577L12.6961 21.0237L30.9829 13.9691L30.2631 12.1031ZM11.9766 19.1576C10.6643 19.6634 10.6799 21.5189 11.9911 22.0096L12.6921 20.1364C13.0981 20.2884 13.1059 20.8657 12.6959 21.0238L11.9766 19.1576ZM18.7684 22.7026L27.4767 17.3391L26.4279 15.6362L17.7196 20.9996L18.7684 22.7026ZM27.4755 17.3398C26.6215 17.8642 25.687 16.7065 26.4555 15.9945L27.8148 17.4616C28.8525 16.5002 27.5956 14.9193 26.4291 15.6354L27.4755 17.3398ZM26.4543 15.9956L19.2675 22.6759L20.6292 24.1408L27.816 17.4605L26.4543 15.9956ZM19.2674 22.676C18.8447 23.069 18.5729 23.5958 18.4958 24.1657L20.4777 24.4338C20.493 24.3209 20.5466 24.2175 20.6293 24.1406L19.2674 22.676ZM18.4957 24.166L18.2508 25.9803L20.2329 26.2478L20.4777 24.4335L18.4957 24.166ZM18.2507 25.9816C18.363 25.1413 19.5356 25.0712 19.764 25.8714L17.8408 26.4203C18.203 27.6894 20.0559 27.5714 20.233 26.2466L18.2507 25.9816ZM19.7642 25.8722L18.8227 22.5638L16.8991 23.1113L17.8406 26.4196L19.7642 25.8722ZM18.8224 22.5627C18.838 22.6174 18.8151 22.6737 18.7689 22.7023L17.7191 20.9999C17.0051 21.4402 16.668 22.3029 16.8994 23.1124L18.8224 22.5627Z" fill="black" mask="url(#path-1-outside-1)"/>
<path d="M12.3416 21.073L11.9911 22.0096L11.9919 22.0099L12.3416 21.073ZM16.7974 22.736L17.7523 22.4391L17.6067 21.9707L17.1471 21.7991L16.7974 22.736ZM18.5218 28.2826L17.5669 28.5795L17.5669 28.5795L18.5218 28.2826ZM19.3549 28.5332L18.7231 27.7581L18.7213 27.7595L19.3549 28.5332ZM21.8386 26.5087L22.4704 27.2838L22.4709 27.2834L21.8386 26.5087ZM22.7417 26.4832L23.3292 25.674L23.3289 25.6737L22.7417 26.4832ZM27.2218 29.7358L27.8096 28.9268L27.8093 28.9266L27.2218 29.7358ZM28.0443 29.4183L27.0652 29.2148L27.0652 29.2151L28.0443 29.4183ZM31.326 13.6329L32.3051 13.8364L32.3051 13.8361L31.326 13.6329ZM30.623 13.0361L30.9829 13.9691L30.9838 13.9688L30.623 13.0361ZM12.3362 20.0907L12.6959 21.0238L12.6961 21.0237L12.3362 20.0907ZM18.244 21.8511L17.7196 20.9996L17.7191 20.9999L18.244 21.8511ZM26.9523 16.4876L26.4291 15.6354L26.4279 15.6362L26.9523 16.4876ZM27.1351 16.7281L26.4555 15.9945L26.4543 15.9956L27.1351 16.7281ZM19.9484 23.4083L19.2675 22.6759L19.2674 22.676L19.9484 23.4083ZM19.4867 24.2997L18.4958 24.1657L18.4957 24.166L19.4867 24.2997ZM19.2419 26.1141L18.2508 25.9803L18.2507 25.9816L19.2419 26.1141ZM18.8024 26.1459L17.8406 26.4196L17.8408 26.4203L18.8024 26.1459ZM17.8609 22.8375L18.8227 22.5638L18.8224 22.5627L17.8609 22.8375ZM11.9919 22.0099L16.4478 23.6729L17.1471 21.7991L12.6913 20.1361L11.9919 22.0099ZM15.8425 23.0329L17.5669 28.5795L19.4767 27.9857L17.7523 22.4391L15.8425 23.0329ZM17.5669 28.5795C17.887 29.6088 19.1493 29.994 19.9884 29.3069L18.7213 27.7595C18.9843 27.5442 19.3774 27.6661 19.4767 27.9857L17.5669 28.5795ZM19.9867 29.3083L22.4704 27.2838L21.2068 25.7335L18.7231 27.7581L19.9867 29.3083ZM22.4709 27.2834C22.3791 27.3583 22.2492 27.3613 22.1545 27.2927L23.3289 25.6737C22.6904 25.2106 21.819 25.2339 21.2063 25.7339L22.4709 27.2834ZM22.1542 27.2924L26.6343 30.545L27.8093 28.9266L23.3292 25.674L22.1542 27.2924ZM26.634 30.5448C27.5286 31.1949 28.7983 30.706 29.0234 29.6216L27.0652 29.2151C27.1356 28.8758 27.5313 28.7246 27.8096 28.9268L26.634 30.5448ZM29.0234 29.6219L32.3051 13.8364L30.3469 13.4294L27.0652 29.2148L29.0234 29.6219ZM32.3051 13.8361C32.5502 12.6555 31.3908 11.6669 30.2622 12.1035L30.9838 13.9688C30.6304 14.1055 30.2708 13.7961 30.3469 13.4297L32.3051 13.8361ZM30.2631 12.1031L11.9763 19.1577L12.6961 21.0237L30.9829 13.9691L30.2631 12.1031ZM11.9766 19.1576C10.6643 19.6634 10.6799 21.5189 11.9911 22.0096L12.6921 20.1364C13.0981 20.2884 13.1059 20.8657 12.6959 21.0238L11.9766 19.1576ZM18.7684 22.7026L27.4767 17.3391L26.4279 15.6362L17.7196 20.9996L18.7684 22.7026ZM27.4755 17.3398C26.6215 17.8642 25.687 16.7065 26.4555 15.9945L27.8148 17.4616C28.8525 16.5002 27.5956 14.9193 26.4291 15.6354L27.4755 17.3398ZM26.4543 15.9956L19.2675 22.6759L20.6292 24.1408L27.816 17.4605L26.4543 15.9956ZM19.2674 22.676C18.8447 23.069 18.5729 23.5958 18.4958 24.1657L20.4777 24.4338C20.493 24.3209 20.5466 24.2175 20.6293 24.1406L19.2674 22.676ZM18.4957 24.166L18.2508 25.9803L20.2329 26.2478L20.4777 24.4335L18.4957 24.166ZM18.2507 25.9816C18.363 25.1413 19.5356 25.0712 19.764 25.8714L17.8408 26.4203C18.203 27.6894 20.0559 27.5714 20.233 26.2466L18.2507 25.9816ZM19.7642 25.8722L18.8227 22.5638L16.8991 23.1113L17.8406 26.4196L19.7642 25.8722ZM18.8224 22.5627C18.838 22.6174 18.8151 22.6737 18.7689 22.7023L17.7191 20.9999C17.0051 21.4402 16.668 22.3029 16.8994 23.1124L18.8224 22.5627Z" fill="#EA77E6" mask="url(#path-1-outside-1)"/>
</g>
<defs>
<filter id="filter0_d" x="0" y="0.998291" width="43.3382" height="40.839" filterUnits="userSpaceOnUse" color-interpolation-filters="sRGB">
<feFlood flood-opacity="0" result="BackgroundImageFix"/>
<feColorMatrix in="SourceAlpha" type="matrix" values="0 0 0 0 0 0 0 0 0 0 0 0 0 0 0 0 0 0 127 0"/>
<feOffset/>
<feGaussianBlur stdDeviation="5.5"/>
<feColorMatrix type="matrix" values="0 0 0 0 0.835294 0 0 0 0 0.156863 0 0 0 0 0.815686 0 0 0 1 0"/>
<feBlend mode="normal" in2="BackgroundImageFix" result="effect1_dropShadow"/>
<feBlend mode="normal" in="SourceGraphic" in2="effect1_dropShadow" result="shape"/>
</filter>
</defs>
</svg>
