<svg width="22" height="20" viewBox="0 0 22 20" fill="none" xmlns="http://www.w3.org/2000/svg">
<mask id="path-1-outside-1" maskUnits="userSpaceOnUse" x="-1" y="0" width="23" height="20" fill="black">
<rect fill="white" x="-1" width="23" height="20"/>
<path fill-rule="evenodd" clip-rule="evenodd" d="M1.34159 10.073L5.79742 11.736L7.52183 17.2826C7.63218 17.6375 8.06681 17.7691 8.35487 17.5332L10.8386 15.5087C11.099 15.2961 11.4698 15.286 11.7417 15.4832L16.2218 18.7358C16.5299 18.9597 16.967 18.7909 17.0443 18.4183L20.326 2.63291C20.4105 2.22582 20.0106 1.88619 19.623 2.03613L1.33622 9.0907C0.885087 9.26458 0.889001 9.90364 1.34159 10.073ZM7.24398 10.8511L15.9523 5.48764C16.1085 5.39172 16.2697 5.60336 16.1351 5.72806L8.94837 12.4083C8.69567 12.6433 8.53292 12.9584 8.48672 13.2997L8.24186 15.1141C8.20947 15.3563 7.8693 15.3803 7.80239 15.1459L6.86092 11.8375C6.75303 11.4602 6.9101 11.057 7.24398 10.8511Z"/>
</mask>
<path d="M1.34159 10.073L0.991127 11.0096L0.991925 11.0099L1.34159 10.073ZM5.79742 11.736L6.75233 11.4391L6.60669 10.9707L6.14708 10.7991L5.79742 11.736ZM7.52183 17.2826L6.56691 17.5795L6.56692 17.5795L7.52183 17.2826ZM8.35487 17.5332L7.72306 16.7581L7.72132 16.7595L8.35487 17.5332ZM10.8386 15.5087L11.4704 16.2838L11.4709 16.2834L10.8386 15.5087ZM11.7417 15.4832L12.3292 14.674L12.3289 14.6737L11.7417 15.4832ZM16.2218 18.7358L16.8096 17.9268L16.8093 17.9266L16.2218 18.7358ZM17.0443 18.4183L16.0652 18.2148L16.0652 18.2151L17.0443 18.4183ZM20.326 2.63291L21.3051 2.83645L21.3051 2.83612L20.326 2.63291ZM19.623 2.03613L19.9829 2.96911L19.9838 2.96878L19.623 2.03613ZM1.33622 9.0907L1.69587 10.0238L1.69614 10.0237L1.33622 9.0907ZM7.24398 10.8511L6.71957 9.99964L6.71911 9.99992L7.24398 10.8511ZM15.9523 5.48764L15.4291 4.63544L15.4279 4.63618L15.9523 5.48764ZM16.1351 5.72806L15.4555 4.99449L15.4543 4.99561L16.1351 5.72806ZM8.94837 12.4083L8.26754 11.6759L8.26741 11.676L8.94837 12.4083ZM8.48672 13.2997L7.49575 13.1657L7.49571 13.166L8.48672 13.2997ZM8.24186 15.1141L7.25084 14.9803L7.25067 14.9816L8.24186 15.1141ZM7.80239 15.1459L6.84058 15.4196L6.8408 15.4203L7.80239 15.1459ZM6.86092 11.8375L7.82273 11.5638L7.8224 11.5627L6.86092 11.8375ZM0.991925 11.0099L5.44775 12.6729L6.14708 10.7991L1.69125 9.13612L0.991925 11.0099ZM4.8425 12.0329L6.56691 17.5795L8.47674 16.9857L6.75233 11.4391L4.8425 12.0329ZM6.56692 17.5795C6.88697 18.6088 8.14933 18.994 8.98843 18.3069L7.72132 16.7595C7.98429 16.5442 8.37738 16.6661 8.47674 16.9857L6.56692 17.5795ZM8.98669 18.3083L11.4704 16.2838L10.2068 14.7335L7.72306 16.7581L8.98669 18.3083ZM11.4709 16.2834C11.3791 16.3583 11.2492 16.3613 11.1545 16.2927L12.3289 14.6737C11.6904 14.2106 10.819 14.2339 10.2063 14.7339L11.4709 16.2834ZM11.1542 16.2924L15.6343 19.545L16.8093 17.9266L12.3292 14.674L11.1542 16.2924ZM15.634 19.5448C16.5286 20.1949 17.7983 19.706 18.0234 18.6216L16.0652 18.2151C16.1356 17.8758 16.5313 17.7246 16.8096 17.9268L15.634 19.5448ZM18.0234 18.6219L21.3051 2.83645L19.3469 2.42937L16.0652 18.2148L18.0234 18.6219ZM21.3051 2.83612C21.5502 1.65551 20.3908 0.66689 19.2622 1.10349L19.9838 2.96878C19.6304 3.10549 19.2708 2.79614 19.3469 2.4297L21.3051 2.83612ZM19.2631 1.10315L0.976298 8.15772L1.69614 10.0237L19.9829 2.96911L19.2631 1.10315ZM0.976569 8.15761C-0.335715 8.66342 -0.320116 10.5189 0.991127 11.0096L1.69205 9.13642C2.09812 9.28837 2.10589 9.86575 1.69587 10.0238L0.976569 8.15761ZM7.7684 11.7026L16.4767 6.3391L15.4279 4.63618L6.71957 9.99964L7.7684 11.7026ZM16.4755 6.33985C15.6215 6.86417 14.687 5.70648 15.4555 4.99449L16.8148 6.46162C17.8525 5.50024 16.5956 3.91927 15.4291 4.63544L16.4755 6.33985ZM15.4543 4.99561L8.26754 11.6759L9.62919 13.1408L16.816 6.4605L15.4543 4.99561ZM8.26741 11.676C7.84472 12.069 7.57287 12.5958 7.49575 13.1657L9.47769 13.4338C9.49297 13.3209 9.54663 13.2175 9.62932 13.1406L8.26741 11.676ZM7.49571 13.166L7.25084 14.9803L9.23287 15.2478L9.47774 13.4335L7.49571 13.166ZM7.25067 14.9816C7.363 14.1413 8.53557 14.0712 8.76399 14.8714L6.8408 15.4203C7.20304 16.6894 9.05595 16.5714 9.23304 15.2466L7.25067 14.9816ZM8.7642 14.8722L7.82273 11.5638L5.8991 12.1113L6.84058 15.4196L8.7642 14.8722ZM7.8224 11.5627C7.83805 11.6174 7.81514 11.6737 7.76886 11.7023L6.71911 9.99992C6.00507 10.4402 5.668 11.3029 5.89944 12.1124L7.8224 11.5627Z" fill="black" mask="url(#path-1-outside-1)"/>
<path d="M1.34159 10.073L0.991127 11.0096L0.991925 11.0099L1.34159 10.073ZM5.79742 11.736L6.75233 11.4391L6.60669 10.9707L6.14708 10.7991L5.79742 11.736ZM7.52183 17.2826L6.56691 17.5795L6.56692 17.5795L7.52183 17.2826ZM8.35487 17.5332L7.72306 16.7581L7.72132 16.7595L8.35487 17.5332ZM10.8386 15.5087L11.4704 16.2838L11.4709 16.2834L10.8386 15.5087ZM11.7417 15.4832L12.3292 14.674L12.3289 14.6737L11.7417 15.4832ZM16.2218 18.7358L16.8096 17.9268L16.8093 17.9266L16.2218 18.7358ZM17.0443 18.4183L16.0652 18.2148L16.0652 18.2151L17.0443 18.4183ZM20.326 2.63291L21.3051 2.83645L21.3051 2.83612L20.326 2.63291ZM19.623 2.03613L19.9829 2.96911L19.9838 2.96878L19.623 2.03613ZM1.33622 9.0907L1.69587 10.0238L1.69614 10.0237L1.33622 9.0907ZM7.24398 10.8511L6.71957 9.99964L6.71911 9.99992L7.24398 10.8511ZM15.9523 5.48764L15.4291 4.63544L15.4279 4.63618L15.9523 5.48764ZM16.1351 5.72806L15.4555 4.99449L15.4543 4.99561L16.1351 5.72806ZM8.94837 12.4083L8.26754 11.6759L8.26741 11.676L8.94837 12.4083ZM8.48672 13.2997L7.49575 13.1657L7.49571 13.166L8.48672 13.2997ZM8.24186 15.1141L7.25084 14.9803L7.25067 14.9816L8.24186 15.1141ZM7.80239 15.1459L6.84058 15.4196L6.8408 15.4203L7.80239 15.1459ZM6.86092 11.8375L7.82273 11.5638L7.8224 11.5627L6.86092 11.8375ZM0.991925 11.0099L5.44775 12.6729L6.14708 10.7991L1.69125 9.13612L0.991925 11.0099ZM4.8425 12.0329L6.56691 17.5795L8.47674 16.9857L6.75233 11.4391L4.8425 12.0329ZM6.56692 17.5795C6.88697 18.6088 8.14933 18.994 8.98843 18.3069L7.72132 16.7595C7.98429 16.5442 8.37738 16.6661 8.47674 16.9857L6.56692 17.5795ZM8.98669 18.3083L11.4704 16.2838L10.2068 14.7335L7.72306 16.7581L8.98669 18.3083ZM11.4709 16.2834C11.3791 16.3583 11.2492 16.3613 11.1545 16.2927L12.3289 14.6737C11.6904 14.2106 10.819 14.2339 10.2063 14.7339L11.4709 16.2834ZM11.1542 16.2924L15.6343 19.545L16.8093 17.9266L12.3292 14.674L11.1542 16.2924ZM15.634 19.5448C16.5286 20.1949 17.7983 19.706 18.0234 18.6216L16.0652 18.2151C16.1356 17.8758 16.5313 17.7246 16.8096 17.9268L15.634 19.5448ZM18.0234 18.6219L21.3051 2.83645L19.3469 2.42937L16.0652 18.2148L18.0234 18.6219ZM21.3051 2.83612C21.5502 1.65551 20.3908 0.66689 19.2622 1.10349L19.9838 2.96878C19.6304 3.10549 19.2708 2.79614 19.3469 2.4297L21.3051 2.83612ZM19.2631 1.10315L0.976298 8.15772L1.69614 10.0237L19.9829 2.96911L19.2631 1.10315ZM0.976569 8.15761C-0.335715 8.66342 -0.320116 10.5189 0.991127 11.0096L1.69205 9.13642C2.09812 9.28837 2.10589 9.86575 1.69587 10.0238L0.976569 8.15761ZM7.7684 11.7026L16.4767 6.3391L15.4279 4.63618L6.71957 9.99964L7.7684 11.7026ZM16.4755 6.33985C15.6215 6.86417 14.687 5.70648 15.4555 4.99449L16.8148 6.46162C17.8525 5.50024 16.5956 3.91927 15.4291 4.63544L16.4755 6.33985ZM15.4543 4.99561L8.26754 11.6759L9.62919 13.1408L16.816 6.4605L15.4543 4.99561ZM8.26741 11.676C7.84472 12.069 7.57287 12.5958 7.49575 13.1657L9.47769 13.4338C9.49297 13.3209 9.54663 13.2175 9.62932 13.1406L8.26741 11.676ZM7.49571 13.166L7.25084 14.9803L9.23287 15.2478L9.47774 13.4335L7.49571 13.166ZM7.25067 14.9816C7.363 14.1413 8.53557 14.0712 8.76399 14.8714L6.8408 15.4203C7.20304 16.6894 9.05595 16.5714 9.23304 15.2466L7.25067 14.9816ZM8.7642 14.8722L7.82273 11.5638L5.8991 12.1113L6.84058 15.4196L8.7642 14.8722ZM7.8224 11.5627C7.83805 11.6174 7.81514 11.6737 7.76886 11.7023L6.71911 9.99992C6.00507 10.4402 5.668 11.3029 5.89944 12.1124L7.8224 11.5627Z" fill="#C542C1" mask="url(#path-1-outside-1)"/>
</svg>
