<svg id="Layer_1" data-name="Layer 1" xmlns="http://www.w3.org/2000/svg" xmlns:xlink="http://www.w3.org/1999/xlink" width="23" height="28" viewBox="0 0 23 28"><defs><style>.cls-1{fill:none;}.cls-2{fill:#fff;}.cls-3{fill:#0053af;}.cls-4{fill:#ec2125;}.cls-5{clip-path:url(#clip-path);}.cls-6{fill:#006;}.cls-7{fill:#c00;}</style><clipPath id="clip-path"><rect class="cls-1" y="14" width="23" height="14"/></clipPath></defs><title>lang_sprite</title><path class="cls-2" d="M0,0H23V4.67H0Z"/><path class="cls-3" d="M0,4.67H23V9.33H0Z"/><path class="cls-4" d="M0,9.33H23V14H0Z"/><g class="cls-5"><path class="cls-6" d="M0,14H23V28H0Z"/><path class="cls-2" d="M9,28h5V14H9Z"/><path class="cls-2" d="M0,18.31v5.38H23V18.31Z"/><path class="cls-7" d="M0,19.38v3.24H23V19.38Z"/><path class="cls-2" d="M0,15.62l4.5,2.69H9v-.54L2.5,14H0Z"/><path class="cls-7" d="M0,14l7,4.31H5.5L0,15.08Z"/><path class="cls-2" d="M0,26.38l4.5-2.69H9v.54L3,28H0Z"/><path class="cls-7" d="M1.5,28l7-4.31H7L0,28Z"/><path class="cls-2" d="M23,15.62l-4.5,2.69H14v-.54L20,14h3Z"/><path class="cls-7" d="M21.5,14l-7,4.31H16L23,14Z"/><path class="cls-2" d="M23,26.38l-4.5-2.69H14v.54L20,28h3Z"/><path class="cls-7" d="M23,28l-7-4.31h1.5L23,26.92Z"/><path class="cls-7" d="M10,28h3V14H10Z"/></g></svg>