<svg width="29" height="29" viewBox="0 0 29 29" fill="none" xmlns="http://www.w3.org/2000/svg">
<path opacity="0.6" fill-rule="evenodd" clip-rule="evenodd" d="M14.3852 28.2361C22.0538 28.2361 28.2704 22.0505 28.2704 14.4203C28.2704 6.79003 22.0538 0.604492 14.3852 0.604492C6.71662 0.604492 0.5 6.79003 0.5 14.4203C0.5 22.0505 6.71662 28.2361 14.3852 28.2361ZM23.931 14.1158C23.8883 13 22.9191 12.1288 21.7612 12.1667C21.2481 12.1839 20.76 12.3871 20.3894 12.728C18.7576 11.6535 16.8407 11.0647 14.8704 11.0233L15.8003 6.7014L18.868 7.32472C18.9535 8.08579 19.659 8.6368 20.4464 8.55415C21.2338 8.4715 21.8039 7.78963 21.7184 7.02856C21.6329 6.26749 20.9274 5.71649 20.14 5.79914C19.6875 5.8439 19.2813 6.09874 19.0569 6.47756L15.5438 5.79914C15.3051 5.74748 15.0663 5.89212 15.0129 6.12629V6.13318L13.9547 10.9407C11.9594 10.9717 10.0176 11.564 8.36439 12.6453C7.52353 11.8808 6.19811 11.9187 5.40713 12.7349C4.61615 13.5476 4.65534 14.8287 5.49976 15.5932C5.66366 15.7413 5.8525 15.8687 6.06271 15.9582C6.04846 16.1614 6.04846 16.3646 6.06271 16.5678C6.06271 19.6706 9.80383 22.1949 14.4179 22.1949C19.0319 22.1949 22.7731 19.6741 22.7731 16.5678C22.7873 16.3646 22.7873 16.1614 22.7731 15.9582C23.4928 15.6104 23.9453 14.8941 23.931 14.1158ZM9.59875 15.5017C9.59875 14.7372 10.2437 14.1139 11.0346 14.1139C11.8256 14.1139 12.4705 14.7372 12.4705 15.5017C12.4705 16.2663 11.8256 16.8896 11.0346 16.8896C10.2401 16.8827 9.59875 16.2663 9.59875 15.5017ZM14.383 20.3775C15.6585 20.4291 16.9056 20.0503 17.9246 19.3099V19.365C18.0814 19.2169 18.0849 18.969 17.9317 18.8175C17.7785 18.6659 17.522 18.6625 17.3652 18.8106C16.4923 19.4132 15.4376 19.7094 14.3688 19.6543C13.2999 19.7025 12.2488 19.3926 11.3865 18.783C11.2405 18.6694 11.0374 18.6694 10.8949 18.783C10.731 18.9139 10.706 19.1515 10.8414 19.3099C11.8604 20.0503 13.1075 20.4291 14.383 20.3775ZM17.6693 16.938C16.8783 16.938 16.2334 16.3147 16.2334 15.5502C16.2334 14.7856 16.8783 14.1623 17.6693 14.1623C18.4603 14.1623 19.1052 14.7856 19.1052 15.5502C19.1372 16.3147 18.5208 16.9587 17.7299 16.9897H17.6586L17.6693 16.938Z" fill="white"/>
</svg>
