<svg width="27" height="30" viewBox="0 0 27 30" fill="none" xmlns="http://www.w3.org/2000/svg">
<g opacity="0.6">
<path d="M10.9391 12.2441C10.1015 12.2441 9.44031 12.9739 9.44031 13.8641C9.44031 14.7544 10.1162 15.4841 10.9391 15.4841C11.7766 15.4841 12.4379 14.7544 12.4379 13.8641C12.4526 12.9739 11.7766 12.2441 10.9391 12.2441ZM16.3024 12.2441C15.4648 12.2441 14.8036 12.9739 14.8036 13.8641C14.8036 14.7544 15.4795 15.4841 16.3024 15.4841C17.1399 15.4841 17.8011 14.7544 17.8011 13.8641C17.8011 12.9739 17.1399 12.2441 16.3024 12.2441Z" fill="white"/>
<path d="M23.4877 0H3.79789C2.13748 0 0.785645 1.3427 0.785645 3.00649V22.7384C0.785645 24.4022 2.13748 25.7449 3.79789 25.7449H20.4608L19.682 23.0449L21.5628 24.7816L23.3408 26.4162L26.4999 29.1892V3.00649C26.4999 1.3427 25.1481 0 23.4877 0ZM17.8159 19.0606C17.8159 19.0606 17.2869 18.433 16.8461 17.8784C18.771 17.3384 19.5057 16.1416 19.5057 16.1416C18.9032 16.5357 18.3301 16.813 17.8159 17.0027C17.0812 17.3092 16.3759 17.5135 15.6852 17.6303C14.2746 17.893 12.9816 17.82 11.8795 17.6157C11.042 17.4551 10.322 17.2216 9.71953 16.9881C9.38157 16.8568 9.01422 16.6962 8.64687 16.4919C8.60279 16.4627 8.55871 16.4481 8.51463 16.4189C8.48524 16.4043 8.47054 16.3897 8.45585 16.3751C8.19136 16.2292 8.04442 16.127 8.04442 16.127C8.04442 16.127 8.74973 17.2946 10.6159 17.8492C10.175 18.4038 9.63136 19.0606 9.63136 19.0606C6.38401 18.9584 5.14973 16.8422 5.14973 16.8422C5.14973 12.1427 7.26565 8.33352 7.26565 8.33352C9.38157 6.7573 11.3946 6.80108 11.3946 6.80108L11.5416 6.97622C8.89667 7.73514 7.67708 8.88811 7.67708 8.88811C7.67708 8.88811 8.00034 8.71298 8.54402 8.46487C10.1163 7.77892 11.3652 7.58919 11.8795 7.54541C11.9677 7.53081 12.0412 7.51622 12.1293 7.51622C13.0256 7.39946 14.0395 7.37027 15.0975 7.48703C16.4934 7.64757 17.9922 8.05622 19.5203 8.88811C19.5203 8.88811 18.3595 7.79352 15.8616 7.0346L16.0673 6.80108C16.0673 6.80108 18.0803 6.7573 20.1963 8.33352C20.1963 8.33352 22.3122 12.1427 22.3122 16.8422C22.3122 16.8422 21.0632 18.9584 17.8159 19.0606Z" fill="white"/>
</g>
</svg>
