<svg width="366" height="366" viewBox="0 0 366 366" fill="none" xmlns="http://www.w3.org/2000/svg">
<g clip-path="url(#clip0)">
<path d="M357.29 315.48C357.18 315.369 357.07 315.258 356.959 315.149L342.879 301.389L317.199 275.549L298.159 256.509L315.039 239.629C318.141 236.509 318.141 231.469 315.039 228.349L296.799 210.109C293.679 207.007 288.639 207.007 285.519 210.109L278.959 216.669L251.999 186.509L358.879 90.829C360.475 89.392 361.426 87.374 361.519 85.229L365.359 8.50897C365.482 6.24497 364.639 4.03497 363.039 2.42897C361.433 0.828968 359.223 -0.0140314 356.959 0.108969L280.239 3.86897C278.094 3.96197 276.076 4.91297 274.639 6.50897L182.879 109.389L90.9587 6.74797C89.5217 5.15197 87.5037 4.20097 85.3587 4.10797L8.63868 0.347969C6.37468 0.224969 4.16468 1.06797 2.55868 2.66797C0.958681 4.27397 0.115681 6.48397 0.238681 8.74797L4.07868 85.468C4.17168 87.613 5.12268 89.631 6.71868 91.068L113.759 187.068L86.8787 216.748L80.3187 210.188C77.1987 207.086 72.1587 207.086 69.0387 210.188L50.7987 228.428C47.6967 231.548 47.6967 236.588 50.7987 239.708L67.6787 256.588L48.5587 275.548L8.55868 315.548C-2.88432 327.036 -2.84832 345.626 8.63968 357.069C14.1227 362.53 21.5397 365.606 29.2787 365.628C37.0507 365.654 44.5107 362.572 49.9987 357.068L108.719 298.348L125.599 315.228C128.719 318.33 133.759 318.33 136.879 315.228L155.119 296.988C158.221 293.868 158.221 288.828 155.119 285.708L148.879 278.748L182.879 248.428L216.879 278.748L210.319 285.308C207.217 288.428 207.217 293.468 210.319 296.588L228.559 314.828C231.679 317.93 236.719 317.93 239.839 314.828L256.719 297.948L275.759 316.988L301.519 342.748L315.439 356.668C326.813 368.225 345.402 368.373 356.959 356.999C368.516 345.626 368.664 327.036 357.29 315.48ZM267.439 228.028L253.359 242.108L223.279 212.028L239.839 197.228L267.439 228.028ZM19.4387 81.068L16.2387 16.508L80.7987 19.708L171.679 121.308L153.119 142.028L119.519 108.428C116.163 105.554 111.113 105.945 108.239 109.301C105.674 112.296 105.674 116.713 108.239 119.708L142.879 154.028L124.479 174.748L19.4387 81.068ZM38.5587 345.068C36.0607 347.582 32.6627 348.993 29.1187 348.988C21.7607 348.442 16.2377 342.034 16.7847 334.676C17.0027 331.733 18.1897 328.946 20.1587 326.748L28.1587 318.748L46.8787 337.228L38.5587 345.068ZM58.0787 325.548L39.6787 307.068L54.1587 292.588L73.0387 311.468L58.0787 325.548ZM83.9187 299.708L65.0387 280.828L78.8787 267.868L97.7587 286.748L83.9187 299.708ZM131.119 297.548L114.319 280.748L84.1587 250.588L67.6787 234.028L74.5587 227.148L138.559 291.148L131.119 297.548ZM137.119 267.068L123.039 252.988L256.639 119.388C259.995 116.514 260.386 111.464 257.512 108.108C254.638 104.752 249.588 104.361 246.232 107.235C245.919 107.503 245.627 107.795 245.359 108.108L111.759 241.708L97.6787 227.628L130.479 190.988L284.559 19.788L349.119 16.588L345.919 81.148L235.359 179.948L137.119 267.068ZM194.399 237.228L211.599 222.748L242.239 253.388L228.159 267.468L194.399 237.228ZM250.399 280.668L234.159 297.948L227.279 291.068L291.279 227.068L298.159 233.948L281.279 250.828L250.399 280.668ZM267.359 286.348L286.879 267.868L300.239 281.228L281.359 300.108L267.359 286.348ZM306.559 325.548L292.079 311.068L310.959 292.188L325.439 306.668L306.559 325.548ZM345.599 345.468L344.959 345.068C339.674 350.107 331.364 350.107 326.079 345.068L318.079 337.068L337.359 318.748L345.359 326.748C350.529 331.879 350.635 340.206 345.599 345.468Z" fill="#7F3BD6"/>
</g>
<defs>
<clipPath id="clip0">
<rect width="365.725" height="365.725" fill="white"/>
</clipPath>
</defs>
</svg>
