<svg width="359" height="293" viewBox="0 0 359 293" fill="none" xmlns="http://www.w3.org/2000/svg">
<path d="M179.736 292.56L330.936 152.104C366.46 119.111 368.511 63.5669 335.518 28.0429C335.378 27.8919 335.237 27.7419 335.096 27.5919C302.172 -7.34509 247.291 -9.35908 211.896 23.0719L179.736 52.5599L147.568 23.0719C112.173 -9.35908 57.2922 -7.34509 24.3682 27.5919C-8.8738 62.8829 -7.2138 118.44 28.0772 151.682C28.2272 151.823 28.3772 151.964 28.5282 152.104L179.736 292.56Z" fill="#FC88A1"/>
<path d="M31.7999 89.408C26.6119 60.448 45.8839 32.765 74.8449 27.578C79.0019 26.833 83.2329 26.586 87.4479 26.84L86.4879 42.84C65.9499 41.588 48.2859 57.222 47.0339 77.76C46.8529 80.722 47.0269 83.695 47.5519 86.616L31.7999 89.408Z" fill="#FCBDCB"/>
<path d="M101 26.6641H117V42.6641H101V26.6641Z" fill="#FCBDCB"/>
</svg>
