<svg width="464" height="464" viewBox="0 0 464 464" fill="none" xmlns="http://www.w3.org/2000/svg">
<g clip-path="url(#clip0)">
<path d="M188.736 460.56L339.936 320.104C375.46 287.111 377.511 231.567 344.518 196.043C344.378 195.892 344.237 195.742 344.096 195.592C311.172 160.655 256.291 158.641 220.896 191.072L188.736 220.56L156.568 191.072C121.173 158.641 66.2922 160.655 33.3682 195.592C0.126196 230.883 1.7862 286.44 37.0772 319.682C37.2272 319.823 37.3772 319.964 37.5282 320.104L188.736 460.56Z" fill="#FC88A1"/>
<path d="M40.7999 257.408C35.6119 228.448 54.8839 200.765 83.8449 195.578C88.0019 194.833 92.2329 194.586 96.4479 194.84L95.4879 210.84C74.9499 209.588 57.2859 225.222 56.0339 245.76C55.8529 248.722 56.0269 251.695 56.5519 254.616L40.7999 257.408Z" fill="#FCBDCB"/>
<path d="M110 194.664H126V210.664H110V194.664Z" fill="#FCBDCB"/>
<path d="M464 48H416V0L376 40V88H424L464 48Z" fill="#FC5B68"/>
<path d="M232 368.616L383.2 228.168C418.724 195.168 420.77 139.619 387.771 104.096C387.632 103.946 387.492 103.797 387.352 103.648C354.432 68.7011 299.54 66.6901 264.152 99.1361L232 128.616L199.832 99.1361C164.444 66.6901 109.552 68.7011 76.6318 103.648C43.3898 138.945 45.0548 194.507 80.3518 227.749C80.5008 227.889 80.6498 228.029 80.7998 228.168L232 368.616Z" fill="#FC5B68"/>
<path d="M26.3418 426.375L118.34 334.377L129.654 345.691L37.6558 437.689L26.3418 426.375Z" fill="#FDCD74"/>
<path d="M48 432H32V416C32 407.163 24.837 400 16 400C7.163 400 0 407.163 0 416V464H48C56.837 464 64 456.837 64 448C64 439.163 56.837 432 48 432Z" fill="#FC5B68"/>
<path d="M80.7999 169.408C75.6119 140.448 94.8839 112.765 123.845 107.578C128.002 106.833 132.233 106.586 136.448 106.84L135.488 122.84C114.95 121.588 97.2859 137.222 96.0339 157.76C95.8529 160.722 96.0269 163.695 96.5519 166.616L80.7999 169.408Z" fill="#FC88A1"/>
<path d="M150 106.664H166V122.664H150V106.664Z" fill="#FC88A1"/>
<path d="M338.344 114.341L418.344 34.3411L429.658 45.6551L349.658 125.655L338.344 114.341Z" fill="#FDCD74"/>
</g>
<defs>
<clipPath id="clip0">
<rect width="464" height="464" fill="white"/>
</clipPath>
</defs>
</svg>
